# xmcd CD database file
#
# Track frame offsets:
#	150
#	20544
#	49729
#	71647
#	102875
#	115988
#	131139
#	152499
#	178672
#	195739
#	206793
#	225988
#	247626
#	260624
#	275287
#
# Disc length: 3896 seconds
#
# Revision: 0
# Processed by: cddbd v1.5.1PL0 Copyright (c) Steve Scherf et al.
# Submitted via: CDex 1.50beta9
#
DISCID=cd0f360f
DTITLE=Paolo Fresu 5et - Kosmopolites
DYEAR=2005
DGENRE=Jazz
TTITLE0=Paolo Fresu 5et - In Viaggio
TTITLE1=Paolo Fresu 5et - Kosmopolites
TTITLE2=Paolo Fresu 5et - Spazi Provvisori 1
TTITLE3=Paolo Fresu 5et - In Stretta Vicinanza
TTITLE4=Paolo Fresu 5et - Calasetta
TTITLE5=Paolo Fresu 5et - Hush Please!
TTITLE6=Paolo Fresu 5et - Negli Occhi
TTITLE7=Paolo Fresu 5et - Visione
TTITLE8=Paolo Fresu 5et - Echoes
TTITLE9=Paolo Fresu 5et - Spazi Provvisori 2
TTITLE10=Paolo Fresu 5et - The Ride
TTITLE11=Paolo Fresu 5et - Echoes 2
TTITLE12=Paolo Fresu 5et - Variazione 12
TTITLE13=Paolo Fresu 5et - The Silent Track
TTITLE14=Paolo Fresu 5et - Lascia Ch'io Pianga
EXTD=YEAR: 2005
EXTT0=
EXTT1=
EXTT2=
EXTT3=
EXTT4=
EXTT5=
EXTT6=
EXTT7=
EXTT8=
EXTT9=
EXTT10=
EXTT11=
EXTT12=
EXTT13=
EXTT14=
PLAYORDER=
